<?xml version="1.0" encoding="UTF-8" standalone="no"?>
<!DOCTYPE svg PUBLIC "-//W3C//DTD SVG 1.1//EN" "http://www.w3.org/Graphics/SVG/1.1/DTD/svg11.dtd">
<svg width="100%" height="100%" viewBox="0 0 469 661" version="1.1" xmlns="http://www.w3.org/2000/svg" xmlns:xlink="http://www.w3.org/1999/xlink" xml:space="preserve" xmlns:serif="http://www.serif.com/" style="fill-rule:evenodd;clip-rule:evenodd;stroke-linejoin:round;stroke-miterlimit:2;">
    <g transform="matrix(1.29106,0,0,1.29106,-258.989,-255.424)">
        <g>
            <g>
                <path d="M379.22,591.85L216.48,591.85L216.48,425.16L237.54,424.73L257.29,370.46L310.3,386.56L296.89,442.68L317.89,457.34L365.77,425.04L399.22,469.27L355.36,506.77L363.76,531L421.45,532.99L422.53,588.42L379.22,591.85Z" style="fill:rgb(0,114,168);"/>
                <path d="M216.49,213.7L328.38,213.7L336.36,232.26L303.92,248.55L305.39,264.62L340.33,274.57L332.58,308.59L296.78,302.67L288.55,316.56L310.93,345.18L284.7,368.14L259.21,342.31L244.41,348.67L245.72,384.99L216.49,387.64L216.49,213.7Z" style="fill:rgb(0,114,168);"/>
                <path d="M354.48,213.7L547.7,213.7L547.7,585.66L534.56,583.66L541.94,501.57L509.21,485.2L448.2,540.74L391.79,485.17L446,423.07L429.12,390.57L347.13,399.62L334.17,321.5L414.51,303.17L419.96,266.91L348.29,226.06L354.48,213.7Z" style="fill:rgb(0,114,168);"/>
            </g>
            <g transform="matrix(0.995911,0,0,0.995911,2.45878,2.48172)">
                <path d="M240.46,665.01L254.72,619.7L254.9,620.2L269.37,665.01L240.46,665.01ZM266.31,606.89L242.68,606.89L214.9,694.29L231.62,694.29L236.68,677.46L272.97,677.46L278.31,694.29L294.02,694.29L294.34,693.24L266.31,606.89Z" style="fill:rgb(0,114,168);"/>
                <rect x="531.45" y="606.89" width="16.03" height="87.4" style="fill:rgb(0,114,168);"/>
                <rect x="502.5" y="606.89" width="16.03" height="87.4" style="fill:rgb(0,114,168);"/>
                <path d="M409.11,632.15C405.87,632.15 402.86,632.93 400.21,634.36C397.54,635.92 395.54,638.16 394.09,641.25L393.5,641.25L393.76,633.08L380.36,633.08L380.36,694.3L394.35,694.3L394.35,656.51C394.35,656.31 394.28,656.17 394.28,655.91L394.28,655.33C394.28,651.87 395.13,648.94 396.76,646.78C398.41,644.6 400.95,643.47 404.56,643.47C408.33,643.47 410.59,644.43 411.37,646.23C412.04,648.11 412.39,650.69 412.39,653.75L412.39,656.52L425.25,656.52L425.25,652.32C425.25,646.23 424.22,641.3 422.08,637.66C419.95,634.03 415.63,632.15 409.11,632.15Z" style="fill:rgb(0,114,168);"/>
                <path d="M447.21,655.77L486.54,655.77L486.54,643.55L447.21,643.55L447.21,620.78L488.59,620.78L488.59,606.9L431.67,606.9L431.67,694.3L488.91,694.3L488.91,680.5L447.21,680.5L447.21,655.77Z" style="fill:rgb(0,114,168);"/>
                <path d="M319.59,665.01L333.85,619.7L334.03,620.2L348.5,665.01L319.59,665.01ZM345.44,606.89L321.93,606.89L294.35,693.24L294.75,694.29L310.77,694.29L315.92,677.46L352.11,677.46L357.44,694.29L373.84,694.29L345.44,606.89Z" style="fill:rgb(0,114,168);"/>
            </g>
        </g>
    </g>
</svg>
